<mxfile host="app.diagrams.net" modified="2024-06-18T14:10:46.122Z" agent="Mozilla/5.0 (Windows NT 10.0; Win64; x64) AppleWebKit/537.36 (KHTML, like Gecko) Chrome/126.0.0.0 Safari/537.36" version="24.5.5" etag="yToCg4YzcpxOphFijyNN" type="github">
  <diagram name="Página-1" id="Pk3rWDR9IbhghHE1BtO2">
    <mxGraphModel>
      <root>
        <mxCell id="0" />
        <mxCell id="1" parent="0" />
        <mxCell id="2" value="Modelagem da Arquitetura" style="whiteSpace=wrap;strokeWidth=2;" vertex="1" parent="1">
          <mxGeometry x="83" width="205" height="33" as="geometry" />
        </mxCell>
        <mxCell id="3" value="Ferramenta de Modelagem" style="whiteSpace=wrap;strokeWidth=2;" vertex="1" parent="1">
          <mxGeometry x="83" y="83" width="207" height="33" as="geometry" />
        </mxCell>
        <mxCell id="4" value="Criar" style="rounded=1;absoluteArcSize=1;arcSize=14;whiteSpace=wrap;strokeWidth=2;" vertex="1" parent="1">
          <mxGeometry x="129" y="250" width="51" height="33" as="geometry" />
        </mxCell>
        <mxCell id="5" value="Editar" style="rounded=1;absoluteArcSize=1;arcSize=14;whiteSpace=wrap;strokeWidth=2;" vertex="1" parent="1">
          <mxGeometry x="20" y="250" width="59" height="33" as="geometry" />
        </mxCell>
        <mxCell id="6" value="Excluir" style="rounded=1;absoluteArcSize=1;arcSize=14;whiteSpace=wrap;strokeWidth=2;" vertex="1" parent="1">
          <mxGeometry x="280" y="250" width="65" height="33" as="geometry" />
        </mxCell>
        <mxCell id="7" value="Visualizar" style="rounded=1;absoluteArcSize=1;arcSize=14;whiteSpace=wrap;strokeWidth=2;" vertex="1" parent="1">
          <mxGeometry x="189" y="167" width="86" height="33" as="geometry" />
        </mxCell>
        <mxCell id="8" value="Salvar" style="rhombus;strokeWidth=2;whiteSpace=wrap;" vertex="1" parent="1">
          <mxGeometry x="102" y="352" width="93" height="93" as="geometry" />
        </mxCell>
        <mxCell id="9" value="Exportar" style="rhombus;strokeWidth=2;whiteSpace=wrap;" vertex="1" parent="1">
          <mxGeometry x="93" y="513" width="111" height="111" as="geometry" />
        </mxCell>
        <mxCell id="10" value="PDF" style="rhombus;strokeWidth=2;whiteSpace=wrap;" vertex="1" parent="1">
          <mxGeometry y="693" width="76" height="76" as="geometry" />
        </mxCell>
        <mxCell id="11" value="PNG" style="rhombus;strokeWidth=2;whiteSpace=wrap;" vertex="1" parent="1">
          <mxGeometry x="126" y="692" width="78" height="78" as="geometry" />
        </mxCell>
        <mxCell id="12" value="SVG" style="rhombus;strokeWidth=2;whiteSpace=wrap;" vertex="1" parent="1">
          <mxGeometry x="254" y="693" width="76" height="76" as="geometry" />
        </mxCell>
        <mxCell id="13" value="Finalizado" style="rounded=1;absoluteArcSize=1;arcSize=14;whiteSpace=wrap;strokeWidth=2;" vertex="1" parent="1">
          <mxGeometry x="103" y="839" width="88" height="33" as="geometry" />
        </mxCell>
        <mxCell id="14" value="" style="curved=1;startArrow=none;endArrow=block;exitX=0.5;exitY=1.01;entryX=0.5;entryY=0.01;" edge="1" parent="1" source="2" target="3">
          <mxGeometry relative="1" as="geometry">
            <Array as="points" />
          </mxGeometry>
        </mxCell>
        <mxCell id="15" value="" style="curved=1;startArrow=none;endArrow=block;exitX=0.44;exitY=1.02;entryX=0.49;entryY=0.01;" edge="1" parent="1" source="3" target="4">
          <mxGeometry relative="1" as="geometry">
            <Array as="points">
              <mxPoint x="154" y="142" />
            </Array>
          </mxGeometry>
        </mxCell>
        <mxCell id="16" value="" style="curved=1;startArrow=none;endArrow=block;exitX=0.21;exitY=1.02;entryX=0.42;entryY=0.01;" edge="1" parent="1" source="3" target="5">
          <mxGeometry relative="1" as="geometry">
            <Array as="points">
              <mxPoint x="39" y="142" />
              <mxPoint x="39" y="225" />
            </Array>
          </mxGeometry>
        </mxCell>
        <mxCell id="17" value="" style="curved=1;startArrow=none;endArrow=block;exitX=0.74;exitY=1.02;entryX=0.48;entryY=0.01;" edge="1" parent="1" source="3" target="6">
          <mxGeometry relative="1" as="geometry">
            <Array as="points">
              <mxPoint x="310" y="142" />
              <mxPoint x="310" y="225" />
            </Array>
          </mxGeometry>
        </mxCell>
        <mxCell id="18" value="" style="curved=1;startArrow=none;endArrow=block;exitX=0.59;exitY=1.02;entryX=0.5;entryY=-0.01;" edge="1" parent="1" source="3" target="7">
          <mxGeometry relative="1" as="geometry">
            <Array as="points">
              <mxPoint x="232" y="142" />
            </Array>
          </mxGeometry>
        </mxCell>
        <mxCell id="19" value="" style="curved=1;startArrow=none;endArrow=block;exitX=0.09;exitY=1.02;entryX=0.15;entryY=0;" edge="1" parent="1" source="4" target="8">
          <mxGeometry relative="1" as="geometry">
            <Array as="points">
              <mxPoint x="92" y="318" />
            </Array>
          </mxGeometry>
        </mxCell>
        <mxCell id="20" value="Sim" style="curved=1;startArrow=none;endArrow=block;exitX=0.5;exitY=1;entryX=0.5;entryY=0;" edge="1" parent="1" source="8" target="9">
          <mxGeometry relative="1" as="geometry">
            <Array as="points" />
          </mxGeometry>
        </mxCell>
        <mxCell id="21" value="Não" style="curved=1;startArrow=none;endArrow=block;exitX=1;exitY=0.1;entryX=0.99;entryY=0.93;" edge="1" parent="1" source="8" target="4">
          <mxGeometry relative="1" as="geometry">
            <Array as="points">
              <mxPoint x="249" y="318" />
            </Array>
          </mxGeometry>
        </mxCell>
        <mxCell id="22" value="" style="curved=1;startArrow=none;endArrow=block;exitX=0;exitY=0.9;entryX=0.5;entryY=0;" edge="1" parent="1" source="9" target="10">
          <mxGeometry relative="1" as="geometry">
            <Array as="points">
              <mxPoint x="38" y="658" />
            </Array>
          </mxGeometry>
        </mxCell>
        <mxCell id="23" value="" style="curved=1;startArrow=none;endArrow=block;exitX=0.47;exitY=1;entryX=0.35;entryY=0;" edge="1" parent="1" source="9" target="11">
          <mxGeometry relative="1" as="geometry">
            <Array as="points">
              <mxPoint x="143" y="658" />
            </Array>
          </mxGeometry>
        </mxCell>
        <mxCell id="24" value="" style="curved=1;startArrow=none;endArrow=block;exitX=1;exitY=0.87;entryX=0.35;entryY=0;" edge="1" parent="1" source="9" target="12">
          <mxGeometry relative="1" as="geometry">
            <Array as="points">
              <mxPoint x="270" y="658" />
            </Array>
          </mxGeometry>
        </mxCell>
        <mxCell id="25" value="Sim" style="curved=1;startArrow=none;endArrow=block;exitX=0.5;exitY=1;entryX=0.09;entryY=0;" edge="1" parent="1" source="10" target="13">
          <mxGeometry relative="1" as="geometry">
            <Array as="points">
              <mxPoint x="38" y="805" />
            </Array>
          </mxGeometry>
        </mxCell>
        <mxCell id="26" value="Não" style="curved=1;startArrow=none;endArrow=block;exitX=0.98;exitY=0;entryX=0.28;entryY=1;" edge="1" parent="1" source="10" target="9">
          <mxGeometry relative="1" as="geometry">
            <Array as="points">
              <mxPoint x="109" y="658" />
            </Array>
          </mxGeometry>
        </mxCell>
        <mxCell id="27" value="Sim" style="curved=1;startArrow=none;endArrow=block;exitX=0.5;exitY=1.01;entryX=0.57;entryY=0;" edge="1" parent="1" source="11" target="13">
          <mxGeometry relative="1" as="geometry">
            <Array as="points">
              <mxPoint x="165" y="805" />
            </Array>
          </mxGeometry>
        </mxCell>
        <mxCell id="28" value="Não" style="curved=1;startArrow=none;endArrow=block;exitX=0.99;exitY=0;entryX=0.99;entryY=1;" edge="1" parent="1" source="11" target="9">
          <mxGeometry relative="1" as="geometry">
            <Array as="points">
              <mxPoint x="236" y="658" />
            </Array>
          </mxGeometry>
        </mxCell>
        <mxCell id="29" value="Sim" style="curved=1;startArrow=none;endArrow=block;exitX=0.51;exitY=1.01;entryX=1;entryY=0.04;" edge="1" parent="1" source="12" target="13">
          <mxGeometry relative="1" as="geometry">
            <Array as="points">
              <mxPoint x="292" y="805" />
            </Array>
          </mxGeometry>
        </mxCell>
        <mxCell id="30" value="Não" style="curved=1;startArrow=none;endArrow=block;exitX=0.74;exitY=0;entryX=1;entryY=0.75;" edge="1" parent="1" source="12" target="9">
          <mxGeometry relative="1" as="geometry">
            <Array as="points">
              <mxPoint x="326" y="658" />
            </Array>
          </mxGeometry>
        </mxCell>
        <mxCell id="31" value="" style="curved=1;startArrow=none;endArrow=block;exitX=0.84;exitY=1.02;entryX=0.27;entryY=0;" edge="1" parent="1" source="5" target="8">
          <mxGeometry relative="1" as="geometry">
            <Array as="points">
              <mxPoint x="112" y="318" />
            </Array>
          </mxGeometry>
        </mxCell>
        <mxCell id="32" value="" style="curved=1;startArrow=none;endArrow=block;exitX=0.01;exitY=1.02;entryX=0.91;entryY=0;" edge="1" parent="1" source="6" target="8">
          <mxGeometry relative="1" as="geometry">
            <Array as="points">
              <mxPoint x="215" y="318" />
            </Array>
          </mxGeometry>
        </mxCell>
        <mxCell id="33" value="" style="curved=1;startArrow=none;endArrow=block;exitX=0;exitY=0.89;entryX=0.78;entryY=0.01;" edge="1" parent="1" source="7" target="5">
          <mxGeometry relative="1" as="geometry">
            <Array as="points">
              <mxPoint x="92" y="225" />
            </Array>
          </mxGeometry>
        </mxCell>
        <mxCell id="34" value="" style="curved=1;startArrow=none;endArrow=block;exitX=0.95;exitY=1.01;entryX=0.61;entryY=0.01;" edge="1" parent="1" source="7" target="6">
          <mxGeometry relative="1" as="geometry">
            <Array as="points">
              <mxPoint x="330" y="225" />
            </Array>
          </mxGeometry>
        </mxCell>
      </root>
    </mxGraphModel>
  </diagram>
</mxfile>
